ModelForces
version=1
nRows=22
nColumns=21
inDegrees=no

This file contains the forces exerted on a model during a simulation.

A force is a generalized force, meaning that it can be either a force (N) or a torque (Nm).

Units are S.I. units (second, meters, Newtons, ...)
Angles are in degrees.

endheader
time	muscle1	muscle2	contactForce.block.force.X	contactForce.block.force.Y	contactForce.block.force.Z	contactForce.block.torque.X	contactForce.block.torque.Y	contactForce.block.torque.Z	contactForce.ground.force.X	contactForce.ground.force.Y	contactForce.ground.force.Z	contactForce.ground.torque.X	contactForce.ground.torque.Y	contactForce.ground.torque.Z	ground_prescribedForce_fx	ground_prescribedForce_fy	ground_prescribedForce_fz	ground_prescribedForce_px	ground_prescribedForce_py	ground_prescribedForce_pz
      0.00000000	    601.11207290	    507.57846854	     -6.61723227	     38.96058452	      6.61723227	     -1.30001188	     -0.32920950	      0.63829010	      6.61723227	    -38.96058452	     -6.61723227	     -0.97401960	      0.33085949	     -2.92203629	      0.00000000	      0.00000000	      0.00000000	      0.00000000	      0.00000000	      0.00000000
      0.00102975	    591.77116392	    516.74098560	     -6.53074293	     38.65810737	      6.53081354	     -1.28728481	     -0.32570826	      0.63553784	      6.53074293	    -38.65810737	     -6.53081354	     -0.96930550	      0.32732719	     -2.90168678	     -0.15147598	      0.00000000	      0.00000000	      0.00002574	      0.00000000	      0.00000000
      0.00302978	    576.13701127	    522.43385169	     -6.01630079	     36.21967939	      6.01824797	     -1.19438956	     -0.30145486	      0.60397945	      6.01630079	    -36.21967939	     -6.01824797	     -0.91825356	      0.30294409	     -2.72490166	     -0.44567937	      0.00000000	      0.00000000	      0.00007574	      0.00000000	      0.00000000
      0.00502980	    563.74250265	    521.48532059	     -5.06142169	     31.49801712	      5.07141292	     -1.01696559	     -0.25517903	      0.54057035	      5.06142169	    -31.49801712	     -5.07141292	     -0.81489632	      0.25669461	     -2.37823640	     -0.73988277	      0.00000000	      0.00000000	      0.00012575	      0.00000000	      0.00000000
      0.00760066	    552.25544812	    526.03768292	     -3.21463560	     22.35229246	      3.25597444	     -0.67512923	     -0.16524806	      0.41657817	      3.21463560	    -22.35229246	     -3.25597444	     -0.60988279	      0.16777901	     -1.70265027	     -1.11805474	      0.00000000	      0.00000000	      0.00019002	      0.00000000	      0.00000000
      0.01017151	    545.08243917	    524.24007934	     -0.80420226	     10.01157843	      0.89001290	     -0.22084301	     -0.04705088	      0.24263121	      0.80420226	    -10.01157843	     -0.89001290	     -0.32710471	      0.05141839	     -0.78687771	     -1.49622671	      0.00000000	      0.00000000	      0.00025429	      0.00000000	      0.00000000
      0.01327649	    541.22049784	    525.43465582	      0.29214830	     11.16937976	     -0.27049437	      0.34060957	     -0.02111981	     -0.15606026	     -0.29214830	    -11.16937976	      0.27049437	     -0.88955853	      0.02222752	     -0.39109355	     -1.95296775	      0.00000000	      0.00000000	      0.00033191	      0.00000000	      0.00000000
      0.01638146	    541.46381048	    522.83813921	      4.96745306	     34.44542992	     -4.69987614	      1.15264533	     -0.25783920	     -0.47275803	     -4.96745306	    -34.44542992	      4.69987614	     -2.65376290	      0.27231548	     -1.00772551	     -2.40970879	      0.00000000	      0.00000000	      0.00040954	      0.00000000	      0.00000000
      0.02250602	    549.52503181	    517.19496952	     14.94364397	     89.04070402	    -14.75295491	      2.99324349	     -0.76283285	     -1.32335833	    -14.94364397	    -89.04070402	     14.75295491	     -6.74395510	      0.78070581	     -2.36796173	     -3.31062959	      0.00000000	      0.00000000	      0.00056265	      0.00000000	      0.00000000
      0.02550098	    555.30182255	    510.89975231	     20.20027720	    118.87912392	    -20.10236416	      3.95969071	     -1.03180494	     -1.84153618	    -20.20027720	   -118.87912392	     20.10236416	     -8.94350063	      1.05190305	     -3.04769450	     -3.75118731	      0.00000000	      0.00000000	      0.00063752	      0.00000000	      0.00000000
      0.02928171	    563.18086558	    508.00950083	     27.22658696	    159.39123245	    -27.31436108	      5.20521965	     -1.38858810	     -2.58050039	    -27.22658696	   -159.39123245	     27.31436108	    -11.85945092	      1.41193505	     -3.91610799	     -4.30733191	      0.00000000	      0.00000000	      0.00073204	      0.00000000	      0.00000000
      0.03245633	    569.68022539	    501.30212765	     33.73842157	    197.47876038	    -34.05500856	      6.26108179	     -1.70106461	     -3.25144119	    -33.73842157	   -197.47876038	     34.05500856	    -14.48110046	      1.72761605	     -4.73819440	     -4.77431839	      0.00000000	      0.00000000	      0.00081141	      0.00000000	      0.00000000
      0.03563096	    575.72317883	    501.71774501	     40.44590288	    237.29224003	    -41.07086714	      7.28562536	     -2.01601796	     -3.97775771	    -40.44590288	   -237.29224003	     41.07086714	    -17.13638997	      2.04555200	     -5.55247370	     -5.24130486	      0.00000000	      0.00000000	      0.00089077	      0.00000000	      0.00000000
      0.03831609	    580.22293033	    493.87638488	     46.19796061	    271.95182169	    -47.14732437	      8.10934941	     -2.27949906	     -4.63170473	    -46.19796061	   -271.95182169	     47.14732437	    -19.37519241	      2.31130064	     -6.22385246	     -5.63628766	      0.00000000	      0.00000000	      0.00095790	      0.00000000	      0.00000000
      0.04100123	    584.52650256	    493.35125641	     51.90599650	    307.14324709	    -53.24516336	      8.87610117	     -2.53528134	     -5.31969303	    -51.90599650	   -307.14324709	     53.24516336	    -21.57663817	      2.56853336	     -6.86959996	     -6.03127045	      0.00000000	      0.00000000	      0.00102503	      0.00000000	      0.00000000
      0.04368636	    588.49039684	    488.15546709	     57.46944361	    342.52679899	    -59.25339277	      9.57102051	     -2.77755443	     -6.03893321	    -57.46944361	   -342.52679899	     59.25339277	    -23.71491492	      2.81158996	     -7.48237965	     -6.42625324	      0.00000000	      0.00000000	      0.00109216	      0.00000000	      0.00000000
      0.04700282	    592.57307466	    488.71698947	     63.84816315	    385.92711695	    -66.24869309	     10.30310861	     -3.04546908	     -6.97132345	    -63.84816315	   -385.92711695	     66.24869309	    -26.22950252	      3.07887267	     -8.18338525	     -6.91410349	      0.00000000	      0.00000000	      0.00117507	      0.00000000	      0.00000000
      0.04965243	    594.91512022	    482.10153561	     68.24114175	    419.90909774	    -71.12754239	     10.76261473	     -3.21805427	     -7.75522967	    -68.24114175	   -419.90909774	     71.12754239	    -28.11035472	      3.25122312	     -8.69271218	     -7.30386032	      0.00000000	      0.00000000	      0.00124131	      0.00000000	      0.00000000
      0.05230204	    596.41789597	    482.00504028	     71.31210888	    452.82763474	    -74.61687400	     11.06892147	     -3.32319567	     -8.59657906	    -71.31210888	   -452.82763474	     74.61687400	    -29.85231296	      3.35671343	     -9.15149080	     -7.69361715	      0.00000000	      0.00000000	      0.00130755	      0.00000000	      0.00000000
      0.05573711	    597.14508868	    477.64962114	     71.22721393	    493.23048065	    -74.64556138	     11.11701187	     -3.25804415	     -9.85741136	    -71.22721393	   -493.23048065	     74.64556138	    -31.87172019	      3.30067677	     -9.66514716	     -8.19891481	      0.00000000	      0.00000000	      0.00139343	      0.00000000	      0.00000000
      0.05917218	    597.21106612	    480.73494872	     61.73811365	    530.06147722	    -64.33138865	     10.51767523	     -2.75488851	    -11.51802043	    -61.73811365	   -530.06147722	     64.33138865	    -33.58192713	      2.82002126	    -10.07981961	     -8.70421247	      0.00000000	      0.00000000	      0.00147930	      0.00000000	      0.00000000
      0.06202168	    597.69140169	    474.29325645	     51.58199121	    557.03910988	    -53.11885384	      9.80812112	     -2.22846482	    -12.92423788	    -51.58199121	   -557.03910988	     53.11885384	    -34.74145995	      2.31840427	    -10.34455250	     -9.12337348	      0.00000000	      0.00000000	      0.00155054	      0.00000000	      0.00000000
